<svg width="32" height="32" viewBox="0 0 32 32" fill="none" xmlns="http://www.w3.org/2000/svg">
<g clip-path="url(#clip0_87_1422)">
<rect width="32" height="32" fill="#BC6262"/>
</g>
<path fill-rule="evenodd" clip-rule="evenodd" d="M22.6175 5.5C23.3639 5.50038 24.0366 6.06203 24.0784 6.85352C24.1744 8.68363 23.8226 10.2315 22.9973 11.5693C22.1812 12.8923 20.9261 13.9711 19.2786 14.917C18.8979 15.1988 18.6422 15.4294 18.4856 15.625C18.3413 15.8054 18.3061 15.924 18.302 16C18.3061 16.076 18.3413 16.1946 18.4856 16.375C18.6422 16.5706 18.8979 16.8012 19.2786 17.083C20.9261 18.0289 22.1812 19.1077 22.9973 20.4307C23.8226 21.7685 24.1744 23.3164 24.0784 25.1465C24.0366 25.938 23.3639 26.4996 22.6175 26.5H9.38309C8.63641 26.5 7.96396 25.9382 7.92215 25.1465C7.82613 23.3162 8.17783 21.7686 9.00321 20.4307C9.81921 19.1082 11.0732 18.0296 12.72 17.084C12.7257 17.0799 12.7319 17.0754 12.7376 17.0713C13.1094 16.7949 13.3606 16.5678 13.5149 16.375C13.6589 16.1949 13.6934 16.0759 13.6975 16C13.6934 15.9241 13.6589 15.8051 13.5149 15.625C13.3606 15.4321 13.1097 15.2043 12.7376 14.9277C12.7319 14.9237 12.7257 14.9191 12.72 14.915C11.0734 13.9695 9.81914 12.8917 9.00321 11.5693C8.17783 10.2314 7.82613 8.68379 7.92215 6.85352C7.96396 6.06181 8.63641 5.50003 9.38309 5.5H22.6175ZM16.9602 19.6494C16.4041 19.1861 15.5965 19.1863 15.0403 19.6494L10.2102 23.6738C9.67171 24.1229 9.9894 24.9999 10.6907 25H21.3098C22.0108 24.9996 22.3284 24.1229 21.7903 23.6738L16.9602 19.6494ZM13.8264 12.5C13.0844 12.5 12.793 13.4624 13.4104 13.874L15.1682 15.0459C15.6721 15.3817 16.3285 15.3818 16.8323 15.0459L18.5901 13.874C19.2073 13.4624 18.9159 12.5002 18.1741 12.5H13.8264Z" fill="#FFAE00"/>
<defs>
<clipPath id="clip0_87_1422">
<path d="M0 16C0 7.16344 7.16344 0 16 0C24.8366 0 32 7.16344 32 16C32 24.8366 24.8366 32 16 32C7.16344 32 0 24.8366 0 16Z" fill="white"/>
</clipPath>
</defs>
</svg>
