<svg width="32" height="32" viewBox="0 0 32 32" fill="none" xmlns="http://www.w3.org/2000/svg">
<g clip-path="url(#clip0_85_2966)">
<rect width="32" height="32" fill="#BC6262"/>
</g>
<path d="M16 16C16.55 16 17.0208 15.8042 17.4125 15.4125C17.8042 15.0208 18 14.55 18 14C18 13.45 17.8042 12.9792 17.4125 12.5875C17.0208 12.1958 16.55 12 16 12C15.45 12 14.9792 12.1958 14.5875 12.5875C14.1958 12.9792 14 13.45 14 14C14 14.55 14.1958 15.0208 14.5875 15.4125C14.9792 15.8042 15.45 16 16 16ZM14.6725 22.0813C15.4073 22.815 16.5927 22.815 17.3275 22.0813C18.7034 20.7075 19.7693 19.4345 20.525 18.2625C21.5083 16.7375 22 15.3833 22 14.2C22 12.3833 21.4208 10.8958 20.2625 9.7375C19.1042 8.57917 17.6833 8 16 8C14.3167 8 12.8958 8.57917 11.7375 9.7375C10.5792 10.8958 10 12.3833 10 14.2C10 15.3833 10.4917 16.7375 11.475 18.2625C12.2307 19.4345 13.2966 20.7075 14.6725 22.0813ZM17.2793 24.8771C16.5526 25.5362 15.4474 25.5362 14.7207 24.8771C12.6704 23.0175 11.0927 21.271 9.9875 19.6375C8.6625 17.6792 8 15.8667 8 14.2C8 11.7 8.80417 9.70833 10.4125 8.225C12.0208 6.74167 13.8833 6 16 6C18.1167 6 19.9792 6.74167 21.5875 8.225C23.1958 9.70833 24 11.7 24 14.2C24 15.8667 23.3375 17.6792 22.0125 19.6375C20.9073 21.271 19.3296 23.0175 17.2793 24.8771Z" fill="#FFAE00"/>
<defs>
<clipPath id="clip0_85_2966">
<path d="M0 16C0 7.16344 7.16344 0 16 0C24.8366 0 32 7.16344 32 16C32 24.8366 24.8366 32 16 32C7.16344 32 0 24.8366 0 16Z" fill="white"/>
</clipPath>
</defs>
</svg>
