<svg width="32" height="32" viewBox="0 0 32 32" fill="none" xmlns="http://www.w3.org/2000/svg">
<g clip-path="url(#clip0_107_2552)">
<rect width="32" height="32" fill="#BC6262"/>
</g>
<path fill-rule="evenodd" clip-rule="evenodd" d="M16 11C16.5662 11 17.0048 11.4967 16.9346 12.0586L16.5459 15.1621C16.8193 15.3406 17 15.6492 17 16C17 16.5523 16.5523 17 16 17C15.63 17 15.3077 16.7987 15.1348 16.5H12.5C12.4673 16.5 12.4154 16.4937 12.3535 16.4746C12.2709 16.4475 12.2047 16.4037 12.1621 16.3652C12.1574 16.3609 12.1531 16.3562 12.1484 16.3516C12.1506 16.3537 12.1521 16.3563 12.1543 16.3584C12.1521 16.3563 12.1486 16.3556 12.1465 16.3535C12.1444 16.3514 12.1437 16.3479 12.1416 16.3457L12.1348 16.3379C12.1062 16.3062 12.0735 16.2621 12.0479 16.207C12.0545 16.221 12.0601 16.2358 12.0684 16.25C12.0526 16.2228 12.0399 16.197 12.0312 16.1738L12.0303 16.1689C12.0327 16.1753 12.0364 16.1811 12.0391 16.1875C12.0335 16.1743 12.029 16.1606 12.0244 16.1465C12.0266 16.1537 12.0276 16.1615 12.0303 16.1689C12.0245 16.1535 12.0206 16.1382 12.0166 16.123C12.0149 16.1169 12.0132 16.1108 12.0117 16.1045C12.0068 16.0825 12.0026 16.0613 12.001 16.04C11.9997 16.0269 12.0001 16.0136 12 16C12.0001 15.9864 11.9997 15.9731 12.001 15.96C12.0026 15.9387 12.0068 15.9175 12.0117 15.8955C12.0132 15.8892 12.0149 15.8831 12.0166 15.877C12.0206 15.8618 12.0245 15.8465 12.0303 15.8311C12.0276 15.8385 12.0266 15.8463 12.0244 15.8535C12.029 15.8394 12.0335 15.8257 12.0391 15.8125C12.0364 15.8189 12.0327 15.8247 12.0303 15.8311L12.0312 15.8262L12.0479 15.793C12.0735 15.7379 12.1062 15.6938 12.1348 15.6621C12.1297 15.6676 12.1248 15.6731 12.1201 15.6787C12.1273 15.6702 12.1342 15.662 12.1416 15.6543C12.1437 15.6521 12.1444 15.6486 12.1465 15.6465C12.1486 15.6444 12.1521 15.6437 12.1543 15.6416C12.1521 15.6437 12.1506 15.6463 12.1484 15.6484C12.1531 15.6438 12.1574 15.6391 12.1621 15.6348C12.2047 15.5963 12.2709 15.5525 12.3535 15.5254C12.3802 15.5172 12.4043 15.5092 12.4268 15.5059L12.5 15.5H15.1348C15.2134 15.3642 15.3221 15.2478 15.4531 15.1621L15.0654 12.0586C14.9952 11.4967 15.4338 11 16 11ZM12.8516 16.3516C12.8537 16.3495 12.8563 16.3479 12.8584 16.3457C12.8607 16.3432 12.8628 16.3405 12.8652 16.3379C12.8609 16.3426 12.8562 16.3469 12.8516 16.3516ZM12.998 15.9785C12.9978 15.9724 12.9995 15.9662 12.999 15.96C12.9981 15.9503 12.9956 15.941 12.9941 15.9316C12.9966 15.9491 12.9971 15.9649 12.998 15.9785ZM12.8652 15.6621C12.8628 15.6595 12.8607 15.6568 12.8584 15.6543C12.8563 15.6521 12.8537 15.6505 12.8516 15.6484C12.8562 15.6531 12.8609 15.6574 12.8652 15.6621Z" fill="#FFAE00"/>
<path d="M12.3535 16.4746C12.3614 16.4772 12.3688 16.4812 12.377 16.4834C12.3618 16.4794 12.3465 16.4755 12.3311 16.4697C12.3384 16.4724 12.3464 16.4724 12.3535 16.4746Z" fill="#FFAE00"/>
<path d="M12.3311 16.4697L12.3262 16.4688C12.303 16.4601 12.2772 16.4474 12.25 16.4316C12.2773 16.4475 12.3044 16.4597 12.3311 16.4697Z" fill="#FFAE00"/>
<path d="M12.25 16.4316C12.2479 16.4304 12.2453 16.43 12.2432 16.4287C12.2389 16.4261 12.2356 16.4216 12.2314 16.4189C12.2379 16.4231 12.2436 16.428 12.25 16.4316Z" fill="#FFAE00"/>
<path d="M12.0811 16.2686C12.0784 16.2644 12.0739 16.2611 12.0713 16.2568C12.07 16.2547 12.0696 16.2521 12.0684 16.25C12.072 16.2564 12.0769 16.2621 12.0811 16.2686Z" fill="#FFAE00"/>
<path d="M12.0684 15.75C12.0696 15.7479 12.07 15.7453 12.0713 15.7432C12.0739 15.7389 12.0784 15.7356 12.0811 15.7314C12.0769 15.7379 12.072 15.7436 12.0684 15.75Z" fill="#FFAE00"/>
<path d="M12.2314 15.5811C12.2356 15.5784 12.2389 15.5739 12.2432 15.5713C12.2453 15.57 12.2479 15.5696 12.25 15.5684C12.2436 15.572 12.2379 15.5769 12.2314 15.5811Z" fill="#FFAE00"/>
<path d="M12.25 15.5684C12.2772 15.5526 12.303 15.5399 12.3262 15.5312L12.3311 15.5303C12.3044 15.5403 12.2773 15.5525 12.25 15.5684Z" fill="#FFAE00"/>
<path d="M12.3535 15.5254C12.3464 15.5276 12.3384 15.5276 12.3311 15.5303C12.3465 15.5245 12.3618 15.5206 12.377 15.5166C12.3688 15.5188 12.3614 15.5228 12.3535 15.5254Z" fill="#FFAE00"/>
<path fill-rule="evenodd" clip-rule="evenodd" d="M18.5 4.5C19.3284 4.5 20 5.17157 20 6V9.65723C21.6981 10.7304 22.9361 12.4652 23.3496 14.5H23.75C24.1642 14.5 24.5 14.8358 24.5 15.25V16.75C24.5 17.1642 24.1642 17.5 23.75 17.5H23.3496C22.936 19.5345 21.6978 21.2687 20 22.3418V26C20 26.8284 19.3284 27.5 18.5 27.5H13.5C12.6716 27.5 12 26.8284 12 26V22.3418C9.89775 21.013 8.5 18.6709 8.5 16C8.5 13.3289 9.8975 10.9859 12 9.65723V6C12 5.17157 12.6716 4.5 13.5 4.5H18.5ZM16 10C12.6863 10 10 12.6863 10 16C10 19.3137 12.6863 22 16 22C19.3137 22 22 19.3137 22 16C22 12.6863 19.3137 10 16 10Z" fill="#FFAE00"/>
<defs>
<clipPath id="clip0_107_2552">
<path d="M0 16C0 7.16344 7.16344 0 16 0C24.8366 0 32 7.16344 32 16C32 24.8366 24.8366 32 16 32C7.16344 32 0 24.8366 0 16Z" fill="white"/>
</clipPath>
</defs>
</svg>
