<svg width="32" height="32" viewBox="0 0 32 32" fill="none" xmlns="http://www.w3.org/2000/svg">
<g clip-path="url(#clip0_107_2453)">
<rect width="32" height="32" fill="#BC6262"/>
</g>
<path d="M12.121 24.9326L7.05183 18.7772C6.63233 18.2678 6.99468 17.5 7.65458 17.5C7.87458 17.5 8.08437 17.5928 8.23235 17.7556L12.1118 22.023C12.5577 22.5134 13.3485 22.4424 13.6998 21.8804L22.752 7.39686C22.9063 7.14998 23.1769 7 23.468 7C24.133 7 24.537 7.73303 24.1819 8.29529L13.7384 24.8309C13.3746 25.4068 12.554 25.4585 12.121 24.9326Z" fill="#FFAE00" stroke="#FFAE00"/>
<defs>
<clipPath id="clip0_107_2453">
<path d="M0 16C0 7.16344 7.16344 0 16 0C24.8366 0 32 7.16344 32 16C32 24.8366 24.8366 32 16 32C7.16344 32 0 24.8366 0 16Z" fill="white"/>
</clipPath>
</defs>
</svg>
