<svg width="32" height="32" viewBox="0 0 32 32" fill="none" xmlns="http://www.w3.org/2000/svg">
<g clip-path="url(#clip0_85_2766)">
<rect width="32" height="32" fill="#BC6262"/>
</g>
<path fill-rule="evenodd" clip-rule="evenodd" d="M10.1429 24C8.95939 24 8 23.0406 8 21.8571V10.1429C8 8.95939 8.95939 8 10.1429 8H21.8571C23.0406 8 24 8.95939 24 10.1429V21.8571C24 23.0406 23.0406 24 21.8571 24H10.1429Z" stroke="#FFAE00" stroke-width="2.14286"/>
<path d="M23 13H9C8.44772 13 8 12.5523 8 12V10C8 9.44772 8.44772 9 9 9H23C23.5523 9 24 9.44772 24 10V12C24 12.5523 23.5523 13 23 13Z" fill="#FFAE00"/>
<path d="M19 7.6757C19 8.1683 19.3993 8.56763 19.8919 8.56763H20.1081C20.6007 8.56763 21 8.1683 21 7.6757" stroke="#BC6262" stroke-width="1.78386"/>
<path d="M11 7.6757C11 8.1683 11.3993 8.56763 11.8919 8.56763H12.1081C12.6007 8.56763 13 8.1683 13 7.6757" stroke="#BC6262" stroke-width="1.78386"/>
<path d="M19.875 7.875V5.125C19.875 5.05596 19.931 5 20 5C20.069 5 20.125 5.05596 20.125 5.125V7.875C20.125 7.94404 20.069 8 20 8C19.931 8 19.875 7.94404 19.875 7.875Z" stroke="#FFAE00" stroke-width="1.78386"/>
<path d="M11.875 7.875V5.125C11.875 5.05596 11.931 5 12 5C12.069 5 12.125 5.05596 12.125 5.125V7.875C12.125 7.94404 12.069 8 12 8C11.931 8 11.875 7.94404 11.875 7.875Z" stroke="#FFAE00" stroke-width="1.78386"/>
<defs>
<clipPath id="clip0_85_2766">
<path d="M0 16C0 7.16344 7.16344 0 16 0C24.8366 0 32 7.16344 32 16C32 24.8366 24.8366 32 16 32C7.16344 32 0 24.8366 0 16Z" fill="white"/>
</clipPath>
</defs>
</svg>
