<svg width="32" height="32" viewBox="0 0 32 32" fill="none" xmlns="http://www.w3.org/2000/svg">
<g clip-path="url(#clip0_85_2887)">
<rect width="32" height="32" fill="#BC6262"/>
</g>
<path fill-rule="evenodd" clip-rule="evenodd" d="M16 4C18.4853 4 20.5 6.01472 20.5 8.5C20.5 9.91406 19.8472 11.175 18.8271 12H20.5C21.0523 12 21.5 12.4477 21.5 13C21.5 13.5523 21.0523 14 20.5 14H19.5439C18.9787 14 18.5211 14.4704 18.583 15.0322C19.1695 20.3508 22.7803 22 24.5 22C24.7761 22 25 22.2239 25 22.5V24C25 24.5523 24.5523 25 24 25H8C7.44772 25 7 24.5523 7 24V22.5C7.00018 22.2388 7.20144 22.0218 7.46191 22.002C9.20915 21.8674 12.7871 20.0055 13.4062 15.0352C13.4763 14.4725 13.0181 14.0002 12.4512 14H11.5C10.9477 14 10.5 13.5523 10.5 13C10.5 12.4477 10.9477 12 11.5 12H13.1729C12.1528 11.175 11.5 9.91406 11.5 8.5C11.5 6.01472 13.5147 4 16 4ZM15.7598 16C15.2076 16 14.7662 16.4505 14.7119 17C14.4058 20.1032 12.6946 21.6089 11.4365 22.0674C11.0853 22.1954 10.7959 22.505 10.7959 22.8789C10.796 23.2769 11.1186 23.5995 11.5166 23.5996H20.4717C20.8533 23.5996 21.1631 23.2898 21.1631 22.9082C21.1628 22.5269 20.849 22.2182 20.4844 22.1064C19.2228 21.72 17.5307 20.2744 17.2422 17.001C17.1937 16.4508 16.7515 16 16.1992 16H15.7598ZM16 6C14.6193 6 13.5 7.11929 13.5 8.5C13.5 9.88071 14.6193 11 16 11C17.3807 11 18.5 9.88071 18.5 8.5C18.5 7.11929 17.3807 6 16 6Z" fill="#FFAE00"/>
<defs>
<clipPath id="clip0_85_2887">
<path d="M0 16C0 7.16344 7.16344 0 16 0C24.8366 0 32 7.16344 32 16C32 24.8366 24.8366 32 16 32C7.16344 32 0 24.8366 0 16Z" fill="white"/>
</clipPath>
</defs>
</svg>
