<svg width="32" height="32" viewBox="0 0 32 32" fill="none" xmlns="http://www.w3.org/2000/svg">
<g clip-path="url(#clip0_85_3001)">
<rect width="32" height="32" fill="#BC6262"/>
</g>
<path d="M16 12.15V16M16 19.85H16.0096M25.625 16C25.625 21.3157 21.3157 25.625 16 25.625C10.6843 25.625 6.375 21.3157 6.375 16C6.375 10.6843 10.6843 6.375 16 6.375C21.3157 6.375 25.625 10.6843 25.625 16Z" stroke="#FFAE00" stroke-width="2" stroke-linecap="round" stroke-linejoin="round"/>
<defs>
<clipPath id="clip0_85_3001">
<path d="M0 16C0 7.16344 7.16344 0 16 0C24.8366 0 32 7.16344 32 16C32 24.8366 24.8366 32 16 32C7.16344 32 0 24.8366 0 16Z" fill="white"/>
</clipPath>
</defs>
</svg>
