<svg width="32" height="32" viewBox="0 0 32 32" fill="none" xmlns="http://www.w3.org/2000/svg">
<g clip-path="url(#clip0_85_2930)">
<rect width="32" height="32" fill="#BC6262"/>
</g>
<path fill-rule="evenodd" clip-rule="evenodd" d="M16 16.25C17.375 16.25 18.7292 16.4115 20.0625 16.7344C21.3958 17.0573 22.7083 17.5417 24 18.1875C24.6042 18.5 25.0885 18.9531 25.4531 19.5469C25.8177 20.1406 26 20.7917 26 21.5V23C26 24.1046 25.1046 25 24 25H8C6.89543 25 6 24.1046 6 23V21.5C6 20.7917 6.18229 20.1406 6.54688 19.5469C6.91146 18.9531 7.39583 18.5 8 18.1875C9.29167 17.5417 10.6042 17.0573 11.9375 16.7344C13.2708 16.4115 14.625 16.25 16 16.25ZM16 18C14.7556 18 13.522 18.1875 12.2998 18.5625C11.0777 18.9375 9.86686 19.5001 8.66699 20.25C8.46709 20.3888 8.30579 20.5832 8.18359 20.833C8.06137 21.083 8 21.3614 8 21.667C8 22.4032 8.59681 23 9.33301 23H22.667C23.4032 23 24 22.4032 24 21.667C24 21.3614 23.9386 21.083 23.8164 20.833C23.6942 20.5832 23.5329 20.3888 23.333 20.25C22.1331 19.5001 20.9223 18.9375 19.7002 18.5625C18.478 18.1875 17.2444 18 16 18Z" fill="#FFAE00"/>
<path fill-rule="evenodd" clip-rule="evenodd" d="M16 5C17.375 5 18.5521 5.48958 19.5312 6.46875C20.5104 7.44792 21 8.625 21 10C21 11.375 20.5104 12.5521 19.5312 13.5312C18.5521 14.5104 17.375 15 16 15C14.625 15 13.4479 14.5104 12.4688 13.5312C11.4896 12.5521 11 11.375 11 10C11 8.625 11.4896 7.44792 12.4688 6.46875C13.4479 5.48958 14.625 5 16 5ZM16 7C14.3431 7 13 8.34315 13 10C13 11.6569 14.3431 13 16 13C17.6569 13 19 11.6569 19 10C19 8.34315 17.6569 7 16 7Z" fill="#FFAE00"/>
<defs>
<clipPath id="clip0_85_2930">
<path d="M0 16C0 7.16344 7.16344 0 16 0C24.8366 0 32 7.16344 32 16C32 24.8366 24.8366 32 16 32C7.16344 32 0 24.8366 0 16Z" fill="white"/>
</clipPath>
</defs>
</svg>
