<svg width="32" height="32" viewBox="0 0 32 32" fill="none" xmlns="http://www.w3.org/2000/svg">
<g clip-path="url(#clip0_87_1410)">
<rect width="32" height="32" fill="#BC6262"/>
</g>
<path fill-rule="evenodd" clip-rule="evenodd" d="M14.751 6.43943C14.7515 5.21964 15.9682 4.37409 17.1113 4.79978L22.5215 6.81638V25.3183L22.0215 25.4941L17.083 27.2373C15.9446 27.639 14.7512 26.794 14.751 25.5869V25.5371H11.751C10.7846 25.5371 10.0001 24.7535 10 23.7871V8.33786C10.0001 7.37149 10.7846 6.58786 11.751 6.58786H14.751V6.43943ZM11.751 8.08786C11.613 8.08786 11.5011 8.19992 11.501 8.33786V23.7871C11.5011 23.9251 11.613 24.0371 11.751 24.0371H14.751V8.08786H11.751ZM16.1885 15.1435C15.8083 15.1437 15.5001 15.4528 15.5 15.833C15.5002 16.2131 15.8083 16.5213 16.1885 16.5215C16.5688 16.5215 16.8777 16.2132 16.8779 15.833C16.8778 15.4527 16.5688 15.1435 16.1885 15.1435Z" fill="#FFAE00"/>
<defs>
<clipPath id="clip0_87_1410">
<path d="M0 16C0 7.16344 7.16344 0 16 0C24.8366 0 32 7.16344 32 16C32 24.8366 24.8366 32 16 32C7.16344 32 0 24.8366 0 16Z" fill="white"/>
</clipPath>
</defs>
</svg>
